<?xml version="1.0" encoding="UTF-8" standalone="no" ?>
<!DOCTYPE svg PUBLIC "-//W3C//DTD SVG 1.1//EN" "http://www.w3.org/Graphics/SVG/1.1/DTD/svg11.dtd">
<svg xmlns="http://www.w3.org/2000/svg" xmlns:xlink="http://www.w3.org/1999/xlink" version="1.1" width="1280" height="1024" viewBox="0 0 1280 1024" xml:space="preserve">
<desc>Created with Fabric.js 5.3.0</desc>
<defs>
</defs>
<g transform="matrix(1 0 0 1 640 512)" id="background-logo"  >
<rect style="stroke: none; stroke-width: 0; stroke-dasharray: none; stroke-linecap: butt; stroke-dashoffset: 0; stroke-linejoin: miter; stroke-miterlimit: 4; fill: rgb(20,20,20); fill-rule: nonzero; opacity: 1;"  paint-order="stroke"  x="-640" y="-512" rx="0" ry="0" width="1280" height="1024" />
</g>
<g transform="matrix(2.111927699761362 0 0 2.111927699761362 261.004375 516.1601155923468)" id="logo-logo"  >
<g style=""  paint-order="stroke"   >
		<g transform="matrix(-0.6685897821391621 0 0 -0.6685897821391621 1.2532741373549356 0)"  >
<g style=""  paint-order="stroke"   >
		<g transform="matrix(1 0 0 1 1.2950000000000017 0.8699999999999903)"  >
<polygon style="stroke: none; stroke-width: 1; stroke-dasharray: none; stroke-linecap: butt; stroke-dashoffset: 0; stroke-linejoin: miter; stroke-miterlimit: 4; fill: rgb(126,126,126); fill-rule: nonzero; opacity: 1;"  paint-order="stroke"  points="86.645,-97.77 77.21499999999999,-88.91999999999999 77.22500000000001,-81.52999999999999 -71.845,75.24000000000002 -71.885,75.16000000000001 -76.36500000000001,77.38000000000001 -82.805,78.46000000000002 -95.145,97.77 -74.545,85.88000000000001 -73.515,80.02 -72.435,78.07000000000001 78.80499999999999,-80.99 86.02499999999999,-80.74999999999999 95.145,-89.28999999999999 86.50500000000001,-89.72999999999999 86.645,-97.77 " />
</g>
		<g transform="matrix(1 0 0 1 94.525 -94.8)"  >
<polygon style="stroke: none; stroke-width: 1; stroke-dasharray: none; stroke-linecap: butt; stroke-dashoffset: 0; stroke-linejoin: miter; stroke-miterlimit: 4; fill: rgb(126,126,126); fill-rule: nonzero; opacity: 1;"  paint-order="stroke"  points="-0.08500000000000796,5.2 5.474999999999994,-0.009999999999999787 0.2150000000000034,-0.29000000000000004 0.2949999999999875,-5.2 -5.474999999999994,0.20999999999999996 -5.465000000000003,5.0200000000000005 -0.08500000000000796,5.2 " />
</g>
		<g transform="matrix(1 0 0 1 -94.525 -93.45)"  >
<polygon style="stroke: none; stroke-width: 1; stroke-dasharray: none; stroke-linecap: butt; stroke-dashoffset: 0; stroke-linejoin: miter; stroke-miterlimit: 4; fill: rgb(126,126,126); fill-rule: nonzero; opacity: 1;"  paint-order="stroke"  points="0.08499999999999996,5.199999999999999 5.455,5.02 5.475,0.21999999999999886 -0.29499999999999993,-5.200000000000001 -0.20500000000000007,-0.28000000000000114 -5.475,-0.010000000000000675 0.08499999999999996,5.199999999999999 " />
</g>
		<g transform="matrix(1 0 0 1 -1.2849999999999966 2.2250000000000085)"  >
<polygon style="stroke: none; stroke-width: 1; stroke-dasharray: none; stroke-linecap: butt; stroke-dashoffset: 0; stroke-linejoin: miter; stroke-miterlimit: 4; fill: rgb(126,126,126); fill-rule: nonzero; opacity: 1;"  paint-order="stroke"  points="82.79499999999999,78.46499999999999 76.35499999999999,77.385 72.435,75.43499999999999 -77.22500000000001,-81.965 -77.215,-88.92500000000001 -86.655,-97.775 -86.515,-89.73500000000001 -95.14500000000001,-89.29500000000002 -86.025,-80.75500000000001 -78.415,-81.00500000000001 71.85499999999999,77.02499999999999 73.505,80.015 74.535,85.865 95.14500000000001,97.77499999999999 82.79499999999999,78.46499999999999 " />
</g>
</g>
</g>
		<g transform="matrix(0.19142670802433942 0 0 0.19142670802433948 1.2010581815784462 45.37053227204382)"  >
<g style=""  paint-order="stroke"   >
		<g transform="matrix(1 0 0 1 0 0)"  >
<path style="stroke: none; stroke-width: 1; stroke-dasharray: none; stroke-linecap: butt; stroke-dashoffset: 0; stroke-linejoin: miter; stroke-miterlimit: 4; fill: rgb(121,121,121); fill-rule: nonzero; opacity: 1;"  paint-order="stroke"  transform=" translate(-100, -86.5)" d="M 100 0.5 L 0 172.5 L 200 172.5 L 100 0.5 z M 100 20.4 L 182.8 162.8 L 17.2 162.8 L 100 20.4 z" stroke-linecap="round" />
</g>
</g>
</g>
		<g transform="matrix(0.19857452782272703 0 0 0.19857452782272703 -51.09668074082674 1.2044486244026587)"  >
<g style=""  paint-order="stroke"   >
		<g transform="matrix(1 0 0 1 0 0)"  >
<path style="stroke: none; stroke-width: 1; stroke-dasharray: none; stroke-linecap: butt; stroke-dashoffset: 0; stroke-linejoin: miter; stroke-miterlimit: 4; fill: rgb(126,126,126); fill-rule: nonzero; opacity: 1;"  paint-order="stroke"  transform=" translate(-100, -79)" d="M 99.63 158 L 0 49.84 L 46.89 0 L 153.09 0 L 200 49.85 Z M 12.53 49.91 L 99.65 144.49 L 187.44 49.9 L 149.1 9.14 L 50.88 9.14 Z" stroke-linecap="round" />
</g>
</g>
</g>
		<g transform="matrix(0.20914277344345894 0 0 0.20914277344345897 50.03985617875355 -1.8593391373166526)"  >
<g style=""  paint-order="stroke"   >
		<g transform="matrix(1 0 0 1 0 0)"  >
<path style="stroke: none; stroke-width: 1; stroke-dasharray: none; stroke-linecap: butt; stroke-dashoffset: 0; stroke-linejoin: miter; stroke-miterlimit: 4; fill: rgb(126,126,126); fill-rule: nonzero; opacity: 1;"  paint-order="stroke"  transform=" translate(-100, -100)" d="M 100 200 L 0 100 L 100 0 L 200 100 Z M 13.21 100 L 100 186.79 L 186.79 100 L 100 13.21 Z" stroke-linecap="round" />
</g>
</g>
</g>
</g>
</g>
<g transform="matrix(1.9211538461538462 0 0 1.9211538461538462 819.1749725961538 495.0977950146426)" id="text-logo"  >
<g style=""  paint-order="stroke"   >
		<g transform="matrix(1 0 0 1 0 0)" id="text-logo-path-0"  >
<path style="stroke: rgb(171,171,171); stroke-width: 0; stroke-dasharray: none; stroke-linecap: butt; stroke-dashoffset: 0; stroke-linejoin: miter; stroke-miterlimit: 4; fill: rgb(126,126,126); fill-rule: nonzero; opacity: 1;"  paint-order="stroke"  transform=" translate(-182.88, 14.925)" d="M 14.75 -1.55 L 14.75 -24.73 C 14.75 -25.8 15.61 -26.66 16.68 -26.66 L 22.45 -26.66 C 23.39 -26.66 24.17 -27.43 24.17 -28.38 C 24.17 -29.33 23.39 -30.1 22.45 -30.1 L 3.61 -30.1 C 2.67 -30.1 1.89 -29.33 1.89 -28.38 C 1.89 -27.43 2.67 -26.66 3.61 -26.66 L 9.37 -26.66 C 10.45 -26.66 11.31 -25.8 11.31 -24.73 L 11.31 -1.55 C 11.31 -0.6 12.08 0.17 13.03 0.17 C 13.98 0.17 14.75 -0.6 14.75 -1.55 Z M 56.2 -1.55 L 56.2 -7.27 C 56.2 -8.34 57.06 -9.2 58.14 -9.2 L 61.02 -9.2 C 62.09 -9.2 63.47 -8.51 64.11 -7.65 L 69.88 -0.17 C 70.18 0.26 70.65 0.47 71.21 0.47 C 72.11 0.47 72.93 -0.26 72.93 -1.25 C 72.93 -1.59 72.8 -1.98 72.58 -2.28 L 67.98 -8.26 C 67.34 -9.12 67.6 -10.15 68.59 -10.62 C 71.72 -12.43 73.87 -15.82 73.87 -19.65 C 73.87 -25.33 69.1 -30.1 63.42 -30.1 L 55.13 -30.1 C 53.84 -30.1 52.76 -29.03 52.76 -27.74 L 52.76 -1.55 C 52.76 -0.6 53.53 0.17 54.48 0.17 C 55.43 0.17 56.2 -0.6 56.2 -1.55 Z M 56.2 -14.58 L 56.2 -24.73 C 56.2 -25.8 57.06 -26.66 58.14 -26.66 L 63.42 -26.66 C 67.42 -26.66 70.43 -23.65 70.43 -19.65 C 70.43 -15.65 67.42 -12.64 63.42 -12.64 L 58.14 -12.64 C 57.06 -12.64 56.2 -13.5 56.2 -14.58 Z M 129.09 -2.11 L 118.29 -28.6 C 117.39 -30.87 114.29 -30.87 113.39 -28.6 L 102.6 -2.11 C 102.51 -1.94 102.47 -1.68 102.47 -1.42 C 102.47 -0.52 103.2 0.3 104.19 0.3 C 104.83 0.3 105.48 -0.13 105.74 -0.73 L 107.33 -4.64 C 107.72 -5.63 108.92 -6.45 109.99 -6.45 L 121.69 -6.45 C 122.77 -6.45 123.97 -5.63 124.36 -4.64 L 125.95 -0.73 C 126.2 -0.13 126.81 0.3 127.5 0.3 C 128.44 0.3 129.22 -0.47 129.22 -1.42 C 129.22 -1.63 129.17 -1.89 129.09 -2.11 Z M 110.21 -11.7 L 115.11 -23.69 C 115.5 -24.68 116.19 -24.68 116.57 -23.69 L 121.47 -11.7 C 121.86 -10.71 121.35 -9.89 120.27 -9.89 L 111.41 -9.89 C 110.34 -9.89 109.82 -10.71 110.21 -11.7 Z M 177.25 -5.68 C 175.23 -4.13 172.82 -3.23 170.11 -3.23 C 163.57 -3.23 158.24 -8.56 158.24 -15.09 C 158.24 -21.54 163.57 -26.88 170.11 -26.88 C 172.77 -26.88 175.27 -25.93 177.25 -24.42 C 177.5 -24.25 177.89 -24.08 178.32 -24.08 C 179.22 -24.08 180.04 -24.85 180.04 -25.8 C 180.04 -26.32 179.74 -26.88 179.35 -27.18 C 176.73 -29.15 173.55 -30.32 170.11 -30.32 C 161.68 -30.32 154.8 -23.44 154.8 -15.09 C 154.8 -6.67 161.68 0.22 170.11 0.22 C 173.59 0.22 176.82 -0.99 179.35 -2.92 C 179.74 -3.23 180.04 -3.74 180.04 -4.3 C 180.04 -5.2 179.27 -6.02 178.32 -6.02 C 177.93 -6.02 177.55 -5.89 177.25 -5.68 Z M 212.08 -1.55 L 212.08 -6.75 C 212.08 -7.83 212.68 -9.29 213.45 -10.06 L 214.61 -11.22 C 215.39 -12 216.59 -12 217.37 -11.22 L 228.24 -0.3 C 228.55 0 229.02 0.22 229.49 0.22 C 230.39 0.22 231.21 -0.56 231.21 -1.51 C 231.21 -1.98 231 -2.45 230.35 -3.1 L 219.82 -13.67 C 219.04 -14.45 219.04 -15.65 219.82 -16.43 L 230.7 -27.39 C 231 -27.69 231.21 -28.12 231.21 -28.6 C 231.21 -29.54 230.44 -30.32 229.49 -30.32 C 229.06 -30.32 228.59 -30.14 228.29 -29.84 L 213.45 -14.92 C 212.68 -14.15 212.08 -14.41 212.08 -15.48 L 212.08 -28.55 C 212.08 -29.5 211.3 -30.27 210.36 -30.27 C 209.41 -30.27 208.64 -29.5 208.64 -28.55 L 208.64 -1.55 C 208.64 -0.6 209.41 0.17 210.36 0.17 C 211.3 0.17 212.08 -0.6 212.08 -1.55 Z M 263.25 -1.55 L 263.25 -28.55 C 263.25 -29.5 262.47 -30.27 261.53 -30.27 C 260.58 -30.27 259.81 -29.5 259.81 -28.55 L 259.81 -1.55 C 259.81 -0.6 260.58 0.17 261.53 0.17 C 262.47 0.17 263.25 -0.6 263.25 -1.55 Z M 295.28 -1.55 L 295.28 -11.4 C 295.28 -12.47 296.14 -13.33 297.22 -13.33 L 306.63 -13.33 C 307.58 -13.33 308.35 -14.1 308.35 -15.05 C 308.35 -16 307.58 -16.77 306.63 -16.77 L 297.22 -16.77 C 296.14 -16.77 295.28 -17.63 295.28 -18.71 L 295.28 -24.73 C 295.28 -25.8 296.14 -26.66 297.22 -26.66 L 309.64 -26.66 C 310.59 -26.66 311.36 -27.43 311.36 -28.38 C 311.36 -29.33 310.59 -30.1 309.64 -30.1 L 294.21 -30.1 C 292.92 -30.1 291.84 -29.03 291.84 -27.74 L 291.84 -1.55 C 291.84 -0.6 292.62 0.17 293.56 0.17 C 294.51 0.17 295.28 -0.6 295.28 -1.55 Z M 360.81 -29.67 L 353.07 -19.44 C 352.43 -18.58 351.4 -18.58 350.75 -19.44 L 343.01 -29.67 C 342.71 -30.06 342.24 -30.32 341.68 -30.32 C 340.73 -30.32 339.96 -29.54 339.96 -28.6 C 339.96 -28.25 340.09 -27.82 340.3 -27.56 L 349.03 -16.04 C 349.68 -15.18 350.19 -13.63 350.19 -12.56 L 350.19 -1.55 C 350.19 -0.6 350.97 0.17 351.91 0.17 C 352.86 0.17 353.63 -0.6 353.63 -1.55 L 353.63 -12.56 C 353.63 -13.63 354.15 -15.18 354.79 -16.04 L 363.52 -27.56 C 363.74 -27.82 363.87 -28.21 363.87 -28.6 C 363.87 -29.54 363.09 -30.32 362.15 -30.32 C 361.63 -30.32 361.11 -30.06 360.81 -29.67 Z" stroke-linecap="round" />
</g>
</g>
</g>
<g transform="matrix(1.9211538461538462 0 0 1.9211538461538462 259.6933555183005 410.06632922317306)" id="tagline-a9322b8b-78ea-43fa-81af-d0900a5dccef-logo"  >
<g style=""  paint-order="stroke"   >
		<g transform="matrix(1 0 0 1 0 0)" id="tagline-a9322b8b-78ea-43fa-81af-d0900a5dccef-logo-path-0"  >
<path style="stroke: none; stroke-width: 0; stroke-dasharray: none; stroke-linecap: butt; stroke-dashoffset: 0; stroke-linejoin: miter; stroke-miterlimit: 4; fill: rgb(126,126,126); fill-rule: nonzero; opacity: 1;"  paint-order="stroke"  transform=" translate(-13.280000000000001, 15.055)" d="M 2.14 -29.06 C 2.14 -28.45 2.62 -27.99 3.19 -27.99 L 12.26 -27.99 L 12.26 -1.03 C 12.26 -0.46 12.72 0 13.29 0 C 13.86 0 14.32 -0.46 14.32 -1.03 L 14.32 -27.99 L 23.39 -27.99 C 23.96 -27.99 24.42 -28.45 24.42 -29.06 C 24.42 -29.63 23.96 -30.11 23.39 -30.11 L 3.19 -30.11 C 2.62 -30.11 2.14 -29.63 2.14 -29.06 Z" stroke-linecap="round" />
</g>
</g>
</g>
<g transform="matrix(1.9211538461538462 0 0 1.9211538461538462 757.9333989864087 554.030651277403)" id="tagline-41ef41aa-abad-416c-962e-f7ad6416a4f3-logo"  >
<g style=""  paint-order="stroke"   >
		<g transform="matrix(1 0 0 1 -5.684342e-14 0)" id="tagline-41ef41aa-abad-416c-962e-f7ad6416a4f3-logo-path-0"  >
<path style="stroke: none; stroke-width: 0; stroke-dasharray: none; stroke-linecap: butt; stroke-dashoffset: 0; stroke-linejoin: miter; stroke-miterlimit: 4; fill: rgb(126,126,126); fill-rule: nonzero; opacity: 1;"  paint-order="stroke"  transform=" translate(-154.695, 5.55)" d="M 10.61 -0.78 L 6.59 -10.64 C 6.26 -11.49 5.1 -11.49 4.77 -10.64 L 0.75 -0.78 C 0.72 -0.72 0.7 -0.62 0.7 -0.53 C 0.7 -0.19 0.98 0.11 1.34 0.11 C 1.58 0.11 1.82 -0.05 1.92 -0.27 L 2.51 -1.73 C 2.66 -2.1 3.1 -2.4 3.5 -2.4 L 7.86 -2.4 C 8.26 -2.4 8.7 -2.1 8.85 -1.73 L 9.44 -0.27 C 9.54 -0.05 9.76 0.11 10.02 0.11 C 10.37 0.11 10.66 -0.18 10.66 -0.53 C 10.66 -0.61 10.64 -0.7 10.61 -0.78 Z M 3.58 -4.35 L 5.41 -8.82 C 5.55 -9.18 5.81 -9.18 5.95 -8.82 L 7.78 -4.35 C 7.92 -3.98 7.73 -3.68 7.33 -3.68 L 4.03 -3.68 C 3.63 -3.68 3.44 -3.98 3.58 -4.35 Z M 26.14 -0.58 L 26.14 -10.62 C 26.14 -10.98 25.86 -11.26 25.5 -11.26 C 25.15 -11.26 24.86 -10.98 24.86 -10.62 L 24.86 -0.58 C 24.86 -0.22 25.15 0.06 25.5 0.06 C 25.86 0.06 26.14 -0.22 26.14 -0.58 Z M 51.55 -0.58 L 51.55 -10.37 C 51.55 -11.25 50.38 -11.58 49.92 -10.83 L 46.34 -5.25 C 46.13 -4.91 45.78 -4.91 45.57 -5.25 L 41.98 -10.83 C 41.52 -11.58 40.35 -11.25 40.35 -10.37 L 40.35 -0.58 C 40.35 -0.22 40.64 0.06 40.99 0.06 C 41.34 0.06 41.63 -0.22 41.63 -0.58 L 41.63 -8.29 C 41.63 -8.69 41.81 -8.74 42.02 -8.4 L 45.26 -3.34 C 45.58 -2.82 46.32 -2.82 46.64 -3.34 L 49.89 -8.4 C 50.1 -8.74 50.27 -8.69 50.27 -8.29 L 50.27 -0.58 C 50.27 -0.22 50.56 0.06 50.91 0.06 C 51.26 0.06 51.55 -0.22 51.55 -0.58 Z M 40.9 -10.16 L 40.9 -10.14 Z M 51.01 -10.14 L 51.01 -10.16 Z M 83.04 -0.58 L 83.04 -4.24 C 83.04 -4.64 83.36 -4.96 83.76 -4.96 L 87.26 -4.96 C 87.62 -4.96 87.9 -5.25 87.9 -5.6 C 87.9 -5.95 87.62 -6.24 87.26 -6.24 L 83.76 -6.24 C 83.36 -6.24 83.04 -6.56 83.04 -6.96 L 83.04 -9.2 C 83.04 -9.6 83.36 -9.92 83.76 -9.92 L 88.38 -9.92 C 88.74 -9.92 89.02 -10.21 89.02 -10.56 C 89.02 -10.91 88.74 -11.2 88.38 -11.2 L 82.64 -11.2 C 82.16 -11.2 81.76 -10.8 81.76 -10.32 L 81.76 -0.58 C 81.76 -0.22 82.05 0.06 82.4 0.06 C 82.75 0.06 83.04 -0.22 83.04 -0.58 Z M 107.97 -1.2 C 105.54 -1.2 103.55 -3.18 103.55 -5.62 C 103.55 -8.02 105.54 -10 107.97 -10 C 110.38 -10 112.37 -8.02 112.37 -5.62 C 112.37 -3.18 110.38 -1.2 107.97 -1.2 Z M 107.97 0.08 C 111.09 0.08 113.65 -2.48 113.65 -5.62 C 113.65 -8.72 111.09 -11.28 107.97 -11.28 C 104.83 -11.28 102.27 -8.72 102.27 -5.62 C 102.27 -2.48 104.83 0.08 107.97 0.08 Z M 129.14 -0.58 L 129.14 -2.7 C 129.14 -3.1 129.46 -3.42 129.86 -3.42 L 130.93 -3.42 C 131.33 -3.42 131.84 -3.17 132.08 -2.85 L 134.22 -0.06 C 134.34 0.1 134.51 0.18 134.72 0.18 C 135.06 0.18 135.36 -0.1 135.36 -0.46 C 135.36 -0.59 135.31 -0.74 135.23 -0.85 L 133.52 -3.07 C 133.28 -3.39 133.38 -3.78 133.74 -3.95 C 134.91 -4.62 135.71 -5.89 135.71 -7.31 C 135.71 -9.42 133.94 -11.2 131.82 -11.2 L 128.74 -11.2 C 128.26 -11.2 127.86 -10.8 127.86 -10.32 L 127.86 -0.58 C 127.86 -0.22 128.14 0.06 128.5 0.06 C 128.85 0.06 129.14 -0.22 129.14 -0.58 Z M 129.14 -5.42 L 129.14 -9.2 C 129.14 -9.6 129.46 -9.92 129.86 -9.92 L 131.82 -9.92 C 133.31 -9.92 134.43 -8.8 134.43 -7.31 C 134.43 -5.82 133.31 -4.7 131.82 -4.7 L 129.86 -4.7 C 129.46 -4.7 129.14 -5.02 129.14 -5.42 Z M 166.06 -1.86 C 167.04 -0.7 168.4 0.08 169.95 0.08 C 172.05 0.08 173.58 -1.38 173.58 -2.83 C 173.58 -4.85 171.71 -5.81 170.11 -6.42 C 168.64 -6.98 167.62 -7.49 167.62 -8.37 C 167.62 -9.1 168.45 -10 169.9 -10 C 171.06 -10 171.81 -9.5 172.3 -8.83 C 172.42 -8.66 172.61 -8.56 172.82 -8.56 C 173.15 -8.56 173.46 -8.85 173.46 -9.2 C 173.46 -9.33 173.41 -9.47 173.33 -9.58 C 172.64 -10.51 171.55 -11.28 169.9 -11.28 C 167.7 -11.28 166.34 -9.79 166.34 -8.37 C 166.34 -6.59 168.08 -5.82 169.66 -5.23 C 171.12 -4.67 172.3 -4.02 172.3 -2.83 C 172.3 -2.11 171.34 -1.2 169.95 -1.2 C 168.82 -1.2 167.81 -1.76 167.04 -2.67 C 166.93 -2.82 166.75 -2.9 166.56 -2.9 C 166.22 -2.9 165.92 -2.61 165.92 -2.26 C 165.92 -2.11 165.98 -1.95 166.06 -1.86 Z M 195.31 -10.62 L 195.31 -4.32 C 195.31 -2.61 193.9 -1.2 192.19 -1.2 C 190.48 -1.2 189.07 -2.61 189.07 -4.32 L 189.07 -10.62 C 189.07 -10.98 188.78 -11.26 188.43 -11.26 C 188.08 -11.26 187.79 -10.98 187.79 -10.62 L 187.79 -4.32 C 187.79 -1.9 189.78 0.08 192.19 0.08 C 194.61 0.08 196.59 -1.9 196.59 -4.32 L 196.59 -10.62 C 196.59 -10.98 196.3 -11.26 195.95 -11.26 C 195.6 -11.26 195.31 -10.98 195.31 -10.62 Z M 219.15 -2.11 C 218.4 -1.54 217.5 -1.2 216.5 -1.2 C 214.06 -1.2 212.08 -3.18 212.08 -5.62 C 212.08 -8.02 214.06 -10 216.5 -10 C 217.49 -10 218.42 -9.65 219.15 -9.09 C 219.25 -9.02 219.39 -8.96 219.55 -8.96 C 219.89 -8.96 220.19 -9.25 220.19 -9.6 C 220.19 -9.79 220.08 -10 219.94 -10.11 C 218.96 -10.85 217.78 -11.28 216.5 -11.28 C 213.36 -11.28 210.8 -8.72 210.8 -5.62 C 210.8 -2.48 213.36 0.08 216.5 0.08 C 217.79 0.08 218.99 -0.37 219.94 -1.09 C 220.08 -1.2 220.19 -1.39 220.19 -1.6 C 220.19 -1.94 219.9 -2.24 219.55 -2.24 C 219.41 -2.24 219.26 -2.19 219.15 -2.11 Z M 242.43 -2.11 C 241.68 -1.54 240.78 -1.2 239.78 -1.2 C 237.34 -1.2 235.36 -3.18 235.36 -5.62 C 235.36 -8.02 237.34 -10 239.78 -10 C 240.77 -10 241.7 -9.65 242.43 -9.09 C 242.53 -9.02 242.67 -8.96 242.83 -8.96 C 243.17 -8.96 243.47 -9.25 243.47 -9.6 C 243.47 -9.79 243.36 -10 243.22 -10.11 C 242.24 -10.85 241.06 -11.28 239.78 -11.28 C 236.64 -11.28 234.08 -8.72 234.08 -5.62 C 234.08 -2.48 236.64 0.08 239.78 0.08 C 241.07 0.08 242.27 -0.37 243.22 -1.09 C 243.36 -1.2 243.47 -1.39 243.47 -1.6 C 243.47 -1.94 243.18 -2.24 242.83 -2.24 C 242.69 -2.24 242.54 -2.19 242.43 -2.11 Z M 264.3 -1.28 L 259.68 -1.28 C 259.28 -1.28 258.96 -1.6 258.96 -2 L 258.96 -4.24 C 258.96 -4.64 259.28 -4.96 259.68 -4.96 L 263.18 -4.96 C 263.54 -4.96 263.82 -5.25 263.82 -5.6 C 263.82 -5.95 263.54 -6.24 263.18 -6.24 L 259.68 -6.24 C 259.28 -6.24 258.96 -6.56 258.96 -6.96 L 258.96 -9.2 C 258.96 -9.6 259.28 -9.92 259.68 -9.92 L 264.3 -9.92 C 264.66 -9.92 264.94 -10.21 264.94 -10.56 C 264.94 -10.91 264.66 -11.2 264.3 -11.2 L 258.56 -11.2 C 258.08 -11.2 257.68 -10.8 257.68 -10.32 L 257.68 -0.88 C 257.68 -0.4 258.08 0 258.56 0 L 264.3 0 C 264.66 0 264.94 -0.29 264.94 -0.64 C 264.94 -0.99 264.66 -1.28 264.3 -1.28 Z M 279.3 -1.86 C 280.27 -0.7 281.63 0.08 283.18 0.08 C 285.28 0.08 286.82 -1.38 286.82 -2.83 C 286.82 -4.85 284.94 -5.81 283.34 -6.42 C 281.87 -6.98 280.85 -7.49 280.85 -8.37 C 280.85 -9.1 281.68 -10 283.14 -10 C 284.29 -10 285.04 -9.5 285.54 -8.83 C 285.65 -8.66 285.84 -8.56 286.05 -8.56 C 286.38 -8.56 286.69 -8.85 286.69 -9.2 C 286.69 -9.33 286.64 -9.47 286.56 -9.58 C 285.87 -10.51 284.78 -11.28 283.14 -11.28 C 280.93 -11.28 279.57 -9.79 279.57 -8.37 C 279.57 -6.59 281.31 -5.82 282.9 -5.23 C 284.35 -4.67 285.54 -4.02 285.54 -2.83 C 285.54 -2.11 284.58 -1.2 283.18 -1.2 C 282.05 -1.2 281.04 -1.76 280.27 -2.67 C 280.16 -2.82 279.98 -2.9 279.79 -2.9 C 279.46 -2.9 279.15 -2.61 279.15 -2.26 C 279.15 -2.11 279.22 -1.95 279.3 -1.86 Z M 301.17 -1.86 C 302.14 -0.7 303.5 0.08 305.06 0.08 C 307.15 0.08 308.69 -1.38 308.69 -2.83 C 308.69 -4.85 306.82 -5.81 305.22 -6.42 C 303.74 -6.98 302.72 -7.49 302.72 -8.37 C 302.72 -9.1 303.55 -10 305.01 -10 C 306.16 -10 306.91 -9.5 307.41 -8.83 C 307.52 -8.66 307.71 -8.56 307.92 -8.56 C 308.26 -8.56 308.56 -8.85 308.56 -9.2 C 308.56 -9.33 308.51 -9.47 308.43 -9.58 C 307.74 -10.51 306.66 -11.28 305.01 -11.28 C 302.8 -11.28 301.44 -9.79 301.44 -8.37 C 301.44 -6.59 303.18 -5.82 304.77 -5.23 C 306.22 -4.67 307.41 -4.02 307.41 -2.83 C 307.41 -2.11 306.45 -1.2 305.06 -1.2 C 303.92 -1.2 302.91 -1.76 302.14 -2.67 C 302.03 -2.82 301.86 -2.9 301.66 -2.9 C 301.33 -2.9 301.02 -2.61 301.02 -2.26 C 301.02 -2.11 301.09 -1.95 301.17 -1.86 Z" stroke-linecap="round" />
</g>
</g>
</g>
</svg>